<svg xmlns="http://www.w3.org/2000/svg" viewBox="0 0 64 64" role="img" aria-label="Ada">
  <rect width="64" height="64" rx="18" fill="#e8f5ef"/>
  <circle cx="32" cy="28" r="15" fill="#173b31"/>
  <path d="M17 29c0-10 6-18 15-18s15 8 15 18v11H17V29Z" fill="#173b31"/>
  <ellipse cx="32" cy="28" rx="11" ry="13" fill="#ffd7bd"/>
  <path d="M21 25c1-9 6-14 12-14 7 0 12 6 12 15-4-1-8-4-11-8-3 4-8 7-13 7Z" fill="#173b31"/>
  <circle cx="28" cy="29" r="1.2" fill="#173b31"/>
  <circle cx="36" cy="29" r="1.2" fill="#173b31"/>
  <path d="M28 34c2.5 2.4 5.5 2.4 8 0" fill="none" stroke="#c66f67" stroke-width="1.7" stroke-linecap="round"/>
  <path d="M11 64c1-14 9-22 21-22s20 8 21 22H11Z" fill="#176b52"/>
  <path d="m25 44 7 8 7-8-2-2H27l-2 2Z" fill="#fff"/>
</svg>
